#!OML:ASF G:\JayActor3\Patient Classification 1\Patient 1\Session 5\male.ASF
:FULLY-SPECIFIED
:DEGREES
740
root 3.59994 16.9631 -6.64652 420.093 -89.6512 -62.3547
lowerback -1.03028 -0.80768 0.28202
upperback 0.322761 -1.08956 0.725377
thorax 0.916438 -0.546116 0.564489
lowerneck -5.81849 -0.826273 2.00112
upperneck -0.802004 -1.25872 -0.33659
head 0.701111 -0.649755 -0.463251
rclavicle 1.50331e-015 -1.07344e-014
rhumerus -6.07388 -1.23942 -34.6121
rradius 27.1654
rwrist 13.2945
rhand -10.3861 -14.2187
rfingers 7.12502
rthumb 15.6118 -43.6087
lclavicle 1.50331e-015 -1.07344e-014
lhumerus -11.8092 -9.8369 39.1285
lradius 28.4173
lwrist 6.67201
lhand -14.2942 29.7394
lfingers 7.12502
lthumb 11.8454 59.3844
rfemur -3.78949 -0.0400273 16.4317
rtibia 30.6655
rfoot -28.5495 -18.7479
rtoes 9.19816
lfemur 5.61061 7.46421 -15.0718
ltibia 8.01652
lfoot -10.8755 13.9007
ltoes 4.43913
741
root 3.59874 16.9623 -6.65537 423.921 -89.6658 -66.2261
lowerback -0.996482 -0.794153 0.245939
upperback 0.338062 -1.0705 0.697752
thorax 0.913127 -0.536649 0.557156
lowerneck -5.80593 -0.858289 1.95692
upperneck -0.83213 -1.29917 -0.271775
head 0.689517 -0.669425 -0.436527
rclavicle 9.33667e-015 -1.98785e-016
rhumerus -5.58018 -2.00042 -34.0209
rradius 27.231
rwrist 12.7265
rhand -10.7058 -14.2472
rfingers 7.12502
rthumb 15.3039 -43.661
lclavicle 9.33667e-015 -1.98785e-016
lhumerus -11.3081 -9.3614 38.1203
lradius 28.6439
lwrist 6.9761
lhand -14.4605 29.8493
lfingers 7.12502
lthumb 11.6851 59.5034
rfemur -3.76704 -0.0689248 16.4519
rtibia 30.7073
rfoot -28.5267 -18.7171
rtoes 9.14683
lfemur 5.71023 7.48493 -15.0398
ltibia 7.94778
lfoot -10.8505 13.9156
ltoes 4.42898
742
root 3.59769 16.9615 -6.66404 428.042 -89.6786 -70.3899
lowerback -0.962861 -0.780899 0.211243
upperback 0.353413 -1.05186 0.670679
thorax 0.909951 -0.5274 0.54959
lowerneck -5.79355 -0.889877 1.9138
upperneck -0.856305 -1.33905 -0.207646
head 0.679874 -0.68876 -0.410247
rclavicle -3.11843e-015 7.55382e-015
rhumerus -5.09561 -2.71324 -33.4578
rradius 27.2925
rwrist 12.1758
rhand -11.0022 -14.2636
rfingers 7.12502
rthumb 15.0184 -43.699
lclavicle -3.11843e-015 7.55382e-015
lhumerus -10.817 -8.89345 37.1461
lradius 28.8663
lwrist 7.284
lhand -14.6235 29.9539
lfingers 7.12502
lthumb 11.5279 59.6168
rfemur -3.74511 -0.10015 16.471
rtibia 30.748
rfoot -28.5036 -18.6848
rtoes 9.0967
lfemur 5.80661 7.50543 -15.0084
ltibia 7.88275
lfoot -10.8269 13.9303
ltoes 4.41753
743
root 3.59675 16.9607 -6.67261 432.655 -89.6874 -75.0453
lowerback -0.930432 -0.76791 0.178654
upperback 0.368978 -1.03367 0.645317
thorax 0.907657 -0.51838 0.542554
lowerneck -5.78176 -0.920912 1.87227
upperneck -0.873946 -1.37823 -0.145157
head 0.672426 -0.707699 -0.384791
rclavicle 3.35449e-015 3.97569e-016
rhumerus -4.61969 -3.37707 -32.9211
rradius 27.3477
rwrist 11.6437
rhand -11.2744 -14.2682
rfingers 7.12502
rthumb 14.7561 -43.723
lclavicle 3.35449e-015 3.97569e-016
lhumerus -10.3368 -8.43713 36.2059
lradius 29.0845
lwrist 7.5988
lhand -14.7824 30.0549
lfingers 7.12502
lthumb 11.3746 59.7264
rfemur -3.72338 -0.130474 16.4926
rtibia 30.787
rfoot -28.483 -18.6518
rtoes 9.05299
lfemur 5.89879 7.52624 -14.9748
ltibia 7.82302
lfoot -10.806 13.9445
ltoes 4.40757
744
root 3.59595 16.9599 -6.68102 437.447 -89.6924 -79.877
lowerback -0.898887 -0.75517 0.148571
upperback 0.384189 -1.0159 0.62112
thorax 0.905474 -0.509564 0.535279
lowerneck -5.77068 -0.951522 1.832
upperneck -0.88465 -1.41688 -0.083718
head 0.667312 -0.726308 -0.359927
rclavicle -2.76435e-015 1.98785e-016
rhumerus -4.15247 -3.99931 -32.4099
rradius 27.3927
rwrist 11.1401
rhand -11.5189 -14.2642
rfingers 7.12502
rthumb 14.5206 -43.7361
lclavicle -2.76435e-015 1.98785e-016
lhumerus -9.8669 -7.99357 35.2994
lradius 29.2954
lwrist 7.91599
lhand -14.9337 30.1496
lfingers 7.12502
lthumb 11.2287 59.8291
rfemur -3.70218 -0.162248 16.5152
rtibia 30.8241
rfoot -28.4625 -18.6183
rtoes 9.0105
lfemur 5.98616 7.54648 -14.9403
ltibia 7.76861
lfoot -10.788 13.9577
ltoes 4.40032
745
root 3.59527 16.959 -6.68924 442.13 -89.693 -84.6004
lowerback -0.868026 -0.742949 0.121244
upperback 0.399521 -0.998909 0.598305
thorax 0.903778 -0.501136 0.52784
lowerneck -5.7602 -0.9817 1.79282
upperneck -0.889008 -1.45497 -0.0232186
head 0.664329 -0.744586 -0.335586
rclavicle -1.15854e-014 5.36719e-015
rhumerus -3.69363 -4.58267 -31.923
rradius 27.4257
rwrist 10.669
rhand -11.7349 -14.2526
rfingers 7.12502
rthumb 14.3125 -43.7393
lclavicle -1.15854e-014 5.36719e-015
lhumerus -9.40728 -7.56569 34.4266
lradius 29.4984
lwrist 8.2356
lhand -15.078 30.2384
lfingers 7.12502
lthumb 11.0895 59.9254
rfemur -3.68029 -0.195708 16.5392
rtibia 30.8586
rfoot -28.442 -18.5851
rtoes 8.9694
lfemur 6.06873 7.56529 -14.9044
ltibia 7.72082
lfoot -10.7734 13.9705
ltoes 4.39443
746
root 3.59469 16.9582 -6.69732 446.565 -89.6895 -89.0751
lowerback -0.837492 -0.73106 0.0961344
upperback 0.414737 -0.982433 0.576977
thorax 0.902139 -0.492965 0.520659
lowerneck -5.75022 -1.0115 1.75515
upperneck -0.887005 -1.49261 0.0357839
head 0.663451 -0.762583 -0.312007
rclavicle 4.44781e-015 1.59028e-015
rhumerus -3.24293 -5.13244 -31.4597
rradius 27.4438
rwrist 10.2366
rhand -11.9202 -14.2322
rfingers 7.12502
rthumb 14.1339 -43.7314
lclavicle 4.44781e-015 1.59028e-015
lhumerus -8.95789 -7.15575 33.5872
lradius 29.6923
lwrist 8.55751
lhand -15.2158 30.3256
lfingers 7.12502
lthumb 10.9566 60.0197
rfemur -3.65731 -0.228496 16.5651
rtibia 30.8906
rfoot -28.4239 -18.5522
rtoes 8.93401
lfemur 6.14704 7.58275 -14.8672
ltibia 7.67894
lfoot -10.7618 13.9827
ltoes 4.38998
747
root 3.59422 16.9574 -6.70525 450.504 -89.6819 -93.054
lowerback -0.807357 -0.719844 0.0734757
upperback 0.430088 -0.966936 0.55758
thorax 0.900863 -0.485284 0.514048
lowerneck -5.74087 -1.04076 1.71842
upperneck -0.878816 -1.52956 0.0934686
head 0.664654 -0.780186 -0.289033
rclavicle -1.0753e-014 2.38542e-015
rhumerus -2.80035 -5.64974 -31.0188
rradius 27.4463
rwrist 9.84616
rhand -12.076 -14.2045
rfingers 7.12502
rthumb 13.9838 -43.7142
lclavicle -1.0753e-014 2.38542e-015
lhumerus -8.5186 -6.76184 32.7808
lradius 29.8743
lwrist 8.87604
lhand -15.3432 30.4063
lfingers 7.12502
lthumb 10.8337 60.1068
rfemur -3.63279 -0.260645 16.5938
rtibia 30.9198
rfoot -28.4083 -18.5203
rtoes 8.90523
lfemur 6.22146 7.59821 -14.828
ltibia 7.64237
lfoot -10.7523 13.9949
ltoes 4.3846
